<svg width="60" height="60" viewBox="0 0 60 60" fill="none" xmlns="http://www.w3.org/2000/svg">
<g clip-path="url(#clip0_888_43989)">
<path d="M60 30C60 46.5684 46.5684 60 30 60C13.4316 60 0 46.5684 0 30C10.3043 19.6957 19.0434 10.9566 30 0C46.5684 0 60 13.4316 60 30Z" fill="#D80027"/>
<path d="M30 30C30 13.4316 30 11.4783 30 0C13.4316 0 0 13.4316 0 30H30Z" fill="#0052B4"/>
<path d="M26.0875 17.557L22.4236 19.2805L24.3746 22.8289L20.3962 22.0676L19.8919 26.0868L17.1209 23.1309L14.3496 26.0868L13.8456 22.0676L9.86711 22.8286L11.818 19.2803L8.1543 17.557L11.8182 15.8337L9.86711 12.2853L13.8455 13.0464L14.3498 9.02734L17.1209 11.9833L19.892 9.02734L20.3962 13.0464L24.3747 12.2853L22.4236 15.8338L26.0875 17.557Z" fill="#F0F0F0"/>
<path d="M17.1214 23.1408C20.2056 23.1408 22.7058 20.6406 22.7058 17.5565C22.7058 14.4724 20.2056 11.9722 17.1214 11.9722C14.0373 11.9722 11.5371 14.4724 11.5371 17.5565C11.5371 20.6406 14.0373 23.1408 17.1214 23.1408Z" fill="#0052B4"/>
<path d="M17.12 20.5328C15.4793 20.5328 14.1445 19.1979 14.1445 17.5572C14.1445 15.9164 15.4794 14.5815 17.12 14.5815C18.7608 14.5815 20.0957 15.9164 20.0957 17.5572C20.0955 19.1979 18.7605 20.5328 17.12 20.5328Z" fill="#F0F0F0"/>
</g>
<defs>
<clipPath id="clip0_888_43989">
<rect width="60" height="60" fill="white"/>
</clipPath>
</defs>
</svg>
