<svg width="40" height="40" viewBox="0 0 40 40" fill="none" xmlns="http://www.w3.org/2000/svg">
<path fill-rule="evenodd" clip-rule="evenodd" d="M20.0055 31.1254L22.3314 29.7821L26.4155 27.427L26.4073 27.4106L29.3174 25.7327V20.3838L29.3092 20.3756V14.7142V4.43315L36.9863 0L37 0.00819938V20.3838H36.9946V30.207L28.5055 35.1035L28.4973 35.0898L19.9945 40L12.3119 35.5668L12.3201 35.5586L3 30.1823V27.9644V20.3701H3.00549V10.5524L11.4945 5.65319L11.5027 5.66688L20.0055 0.756686L27.1835 4.90199V13.7711L24.6628 12.318L24.66 12.3262L19.9945 9.63401L15.3454 12.3153L15.3509 12.329L10.6881 15.0212V20.3701L10.6936 20.3838V25.7574L15.3372 28.4387L15.3399 28.4332L20.0055 31.1254Z" fill="#2377FC"/>
</svg>
