<svg width="20" height="21" viewBox="0 0 20 21" fill="none" xmlns="http://www.w3.org/2000/svg">
<path fill-rule="evenodd" clip-rule="evenodd" d="M0 10.7305C0 5.20762 4.47715 0.730469 10 0.730469C15.5228 0.730469 20 5.20762 20 10.7305C20 16.2533 15.5228 20.7305 10 20.7305C4.47715 20.7305 0 16.2533 0 10.7305ZM11 6.73047C11 6.17819 10.5523 5.73047 10 5.73047C9.4477 5.73047 9 6.17819 9 6.73047V9.73047H6C5.44772 9.73047 5 10.1782 5 10.7305C5 11.2828 5.44772 11.7305 6 11.7305H9V14.7305C9 15.2828 9.4477 15.7305 10 15.7305C10.5523 15.7305 11 15.2828 11 14.7305V11.7305H14C14.5523 11.7305 15 11.2828 15 10.7305C15 10.1782 14.5523 9.73047 14 9.73047H11V6.73047Z" fill="#BCBEC2"/>
</svg>
